# xmcd
#
# Track frame offsets: 
#        150
#        14428
#        29101
#        44155
#        57325
#        70134
#        86720
#        103188
#        121893
#        135535
#        146057
#        160396
#        172680
#        190406
#        209225
#        222881
#
# Disc length: 3154 seconds
#
# Revision: 0
# Processed by: cddbd v1.5.2PL0 Copyright (c) Steve Scherf et al.
# Submitted via: ExactAudioCopyFreeDBPlugin 1.0
#
DISCID=fc0c5010
DTITLE=Various Artist - Country Roads - Let's Line Dance
DYEAR=2002
DGENRE=Line Dance
TTITLE0=Take Me Home, Country Roads (Dance)
TTITLE1=Blanket On the Ground (Dance)
TTITLE2=Achy Breaky Heart (Dance)
TTITLE3=Rhinestone Cowboy (Dance)
TTITLE4=Jolene (Dance)
TTITLE5=Jambalaya (Dance)
TTITLE6=Blowing Up a Storm (Dance)
TTITLE7=Lyin' Eyes (Dance)
TTITLE8=I'm Gonna Be a Country Boy Again (Dance)
TTITLE9=Hello Mary Lou (Dance)
TTITLE10=Trashy Women (Dance)
TTITLE11=Crystal Chandeliers (Dance)
TTITLE12=She Doesn't Belong (Dance)
TTITLE13=Whiskey in the Jar (Dance)
TTITLE14=Let Me Be There (Dance)
TTITLE15=Top of the World (Dance)
EXTD=Cat: SIGNCD2088 Bar: 5022508208844
EXTT0=
EXTT1=
EXTT2=
EXTT3=
EXTT4=
EXTT5=
EXTT6=
EXTT7=
EXTT8=
EXTT9=
EXTT10=
EXTT11=
EXTT12=
EXTT13=
EXTT14=
EXTT15=
PLAYORDER=
